{"asset":{"version":"2.0","generator":"Onam Odyssey custom low-poly asset"},"scene":0,"scenes":[{"nodes":[0,1,2,3,4,5,6,7,8,9,10,11]}],"nodes":[{"name":"part0","mesh":0,"translation":[0,1.5,0],"scale":[1.2,1.5,0.75]},{"name":"part1","mesh":1,"translation":[0,2.5,0],"scale":[0.8,0.8,0.75]},{"name":"part2","mesh":2,"translation":[0,3.15,0],"scale":[0.8,0.9,0.8]},{"name":"part3","mesh":3,"translation":[0,0.8,0],"scale":[1.35,0.55,0.8]},{"name":"part4","mesh":4,"translation":[0,1.15,0],"scale":[1.3,0.12,0.82]},{"name":"part5","mesh":5,"translation":[-0.65,1.55,0],"scale":[0.3,0.9,0.3]},{"name":"part6","mesh":6,"translation":[0.65,1.55,0],"scale":[0.3,0.9,0.3]},{"name":"part7","mesh":7,"translation":[-0.25,0.2,0],"scale":[0.3,0.75,0.3]},{"name":"part8","mesh":8,"translation":[0.25,0.2,0],"scale":[0.3,0.75,0.3]},{"name":"part9","mesh":9,"translation":[0,2.35,-0.42],"scale":[0.22,0.22,0.22]},{"name":"part10","mesh":10,"translation":[-0.14,2.28,-0.42],"scale":[0.22,0.09,0.08]},{"name":"part11","mesh":11,"translation":[0.14,2.28,-0.42],"scale":[0.22,0.09,0.08]}],"meshes":[{"name":"maveli_part0","primitives":[{"attributes":{"POSITION":0},"indices":1,"material":0}]},{"name":"maveli_part1","primitives":[{"attributes":{"POSITION":0},"indices":1,"material":1}]},{"name":"maveli_part2","primitives":[{"attributes":{"POSITION":0},"indices":1,"material":2}]},{"name":"maveli_part3","primitives":[{"attributes":{"POSITION":0},"indices":1,"material":3}]},{"name":"maveli_part4","primitives":[{"attributes":{"POSITION":0},"indices":1,"material":2}]},{"name":"maveli_part5","primitives":[{"attributes":{"POSITION":0},"indices":1,"material":0}]},{"name":"maveli_part6","primitives":[{"attributes":{"POSITION":0},"indices":1,"material":0}]},{"name":"maveli_part7","primitives":[{"attributes":{"POSITION":0},"indices":1,"material":1}]},{"name":"maveli_part8","primitives":[{"attributes":{"POSITION":0},"indices":1,"material":1}]},{"name":"maveli_part9","primitives":[{"attributes":{"POSITION":0},"indices":1,"material":2}]},{"name":"maveli_part10","primitives":[{"attributes":{"POSITION":0},"indices":1,"material":4}]},{"name":"maveli_part11","primitives":[{"attributes":{"POSITION":0},"indices":1,"material":4}]}],"materials":[{"name":"green","pbrMetallicRoughness":{"baseColorFactor":[0.08,0.38,0.2,1],"metallicFactor":0.05,"roughnessFactor":0.75}},{"name":"skin","pbrMetallicRoughness":{"baseColorFactor":[0.58,0.3,0.18,1],"metallicFactor":0,"roughnessFactor":0.8}},{"name":"gold","pbrMetallicRoughness":{"baseColorFactor":[0.88,0.66,0.12,1],"metallicFactor":0.45,"roughnessFactor":0.3}},{"name":"cream","pbrMetallicRoughness":{"baseColorFactor":[0.94,0.88,0.68,1],"metallicFactor":0.05,"roughnessFactor":0.7}},{"name":"dark","pbrMetallicRoughness":{"baseColorFactor":[0.06,0.04,0.03,1],"metallicFactor":0,"roughnessFactor":0.85}}],"accessors":[{"bufferView":0,"byteOffset":0,"componentType":5126,"count":8,"type":"VEC3","min":[-0.5,-0.5,-0.5],"max":[0.5,0.5,0.5]},{"bufferView":1,"byteOffset":0,"componentType":5123,"count":36,"type":"SCALAR","min":[0],"max":[7]}],"bufferViews":[{"buffer":0,"byteOffset":0,"byteLength":96,"target":34962},{"buffer":0,"byteOffset":96,"byteLength":72,"target":34963}],"buffers":[{"byteLength":168,"uri":"data:application/octet-stream;base64,"}]}