{"asset":{"version":"2.0","generator":"Onam Odyssey custom low-poly asset"},"scene":0,"scenes":[{"nodes":[0,1,2,3,4]}],"nodes":[{"name":"part0","mesh":0,"translation":[0,2.5,0],"scale":[0.55,5,0.55]},{"name":"part1","mesh":1,"translation":[1.1,5,0],"scale":[3.2,0.25,0.25]},{"name":"part2","mesh":2,"translation":[-1.1,5,0],"scale":[3.2,0.25,0.25]},{"name":"part3","mesh":3,"translation":[0,5,1.1],"scale":[0.25,0.25,3.2]},{"name":"part4","mesh":4,"translation":[0,5,-1.1],"scale":[0.25,0.25,3.2]}],"meshes":[{"name":"palm_part0","primitives":[{"attributes":{"POSITION":0},"indices":1,"material":0}]},{"name":"palm_part1","primitives":[{"attributes":{"POSITION":0},"indices":1,"material":0}]},{"name":"palm_part2","primitives":[{"attributes":{"POSITION":0},"indices":1,"material":0}]},{"name":"palm_part3","primitives":[{"attributes":{"POSITION":0},"indices":1,"material":0}]},{"name":"palm_part4","primitives":[{"attributes":{"POSITION":0},"indices":1,"material":0}]}],"materials":[{"name":"palm","pbrMetallicRoughness":{"baseColorFactor":[0.16,0.45,0.22,1],"metallicFactor":0,"roughnessFactor":0.9}}],"accessors":[{"bufferView":0,"byteOffset":0,"componentType":5126,"count":8,"type":"VEC3","min":[-0.5,-0.5,-0.5],"max":[0.5,0.5,0.5]},{"bufferView":1,"byteOffset":0,"componentType":5123,"count":36,"type":"SCALAR","min":[0],"max":[7]}],"bufferViews":[{"buffer":0,"byteOffset":0,"byteLength":96,"target":34962},{"buffer":0,"byteOffset":96,"byteLength":72,"target":34963}],"buffers":[{"byteLength":168,"uri":"data:application/octet-stream;base64,"}]}