{"asset":{"version":"2.0","generator":"Onam Odyssey custom low-poly asset"},"scene":0,"scenes":[{"nodes":[0,1,2,3,4,5,6,7,8,9,10]}],"nodes":[{"name":"part0","mesh":0,"translation":[0,1.1,0],"scale":[3,1.8,6.3]},{"name":"part1","mesh":1,"translation":[0,2.15,0],"scale":[3.2,0.25,6.5]},{"name":"part2","mesh":2,"translation":[-0.8,1.35,3.18],"scale":[0.7,0.6,0.08]},{"name":"part3","mesh":3,"translation":[0.8,1.35,3.18],"scale":[0.7,0.6,0.08]},{"name":"part4","mesh":4,"translation":[-1.25,0.35,-2],"scale":[0.75,0.35,0.3]},{"name":"part5","mesh":5,"translation":[1.25,0.35,-2],"scale":[0.75,0.35,0.3]},{"name":"part6","mesh":6,"translation":[-1.25,0.35,0],"scale":[0.75,0.35,0.3]},{"name":"part7","mesh":7,"translation":[1.25,0.35,0],"scale":[0.75,0.35,0.3]},{"name":"part8","mesh":8,"translation":[-1.25,0.35,2],"scale":[0.75,0.35,0.3]},{"name":"part9","mesh":9,"translation":[1.25,0.35,2],"scale":[0.75,0.35,0.3]},{"name":"part10","mesh":10,"translation":[0,1.15,3.25],"scale":[0.35,0.35,0.35]}],"meshes":[{"name":"train_part0","primitives":[{"attributes":{"POSITION":0},"indices":1,"material":0}]},{"name":"train_part1","primitives":[{"attributes":{"POSITION":0},"indices":1,"material":1}]},{"name":"train_part2","primitives":[{"attributes":{"POSITION":0},"indices":1,"material":2}]},{"name":"train_part3","primitives":[{"attributes":{"POSITION":0},"indices":1,"material":2}]},{"name":"train_part4","primitives":[{"attributes":{"POSITION":0},"indices":1,"material":3}]},{"name":"train_part5","primitives":[{"attributes":{"POSITION":0},"indices":1,"material":3}]},{"name":"train_part6","primitives":[{"attributes":{"POSITION":0},"indices":1,"material":3}]},{"name":"train_part7","primitives":[{"attributes":{"POSITION":0},"indices":1,"material":3}]},{"name":"train_part8","primitives":[{"attributes":{"POSITION":0},"indices":1,"material":3}]},{"name":"train_part9","primitives":[{"attributes":{"POSITION":0},"indices":1,"material":3}]},{"name":"train_part10","primitives":[{"attributes":{"POSITION":0},"indices":1,"material":4}]}],"materials":[{"name":"red","pbrMetallicRoughness":{"baseColorFactor":[0.68,0.07,0.06,1],"metallicFactor":0.1,"roughnessFactor":0.65}},{"name":"gold","pbrMetallicRoughness":{"baseColorFactor":[0.85,0.6,0.1,1],"metallicFactor":0.4,"roughnessFactor":0.35}},{"name":"glass","pbrMetallicRoughness":{"baseColorFactor":[0.25,0.7,0.8,1],"metallicFactor":0.05,"roughnessFactor":0.2}},{"name":"dark","pbrMetallicRoughness":{"baseColorFactor":[0.04,0.04,0.035,1],"metallicFactor":0,"roughnessFactor":0.85}},{"name":"light","pbrMetallicRoughness":{"baseColorFactor":[1,0.65,0.08,1],"metallicFactor":0.1,"roughnessFactor":0.25}}],"accessors":[{"bufferView":0,"byteOffset":0,"componentType":5126,"count":8,"type":"VEC3","min":[-0.5,-0.5,-0.5],"max":[0.5,0.5,0.5]},{"bufferView":1,"byteOffset":0,"componentType":5123,"count":36,"type":"SCALAR","min":[0],"max":[7]}],"bufferViews":[{"buffer":0,"byteOffset":0,"byteLength":96,"target":34962},{"buffer":0,"byteOffset":96,"byteLength":72,"target":34963}],"buffers":[{"byteLength":168,"uri":"data:application/octet-stream;base64,"}]}